<?xml version="1.0" encoding="UTF-8"?>
<svg xmlns="http://www.w3.org/2000/svg" xmlns:xlink="http://www.w3.org/1999/xlink" width="85px" height="85px" viewBox="0 0 85 85" version="1.1">
<g id="surface1">
<path style=" stroke:none;fill-rule:nonzero;fill:rgb(100%,25.098039%,0%);fill-opacity:1;" d="M 18.417969 0 L 66.582031 0 C 76.753906 0 85 8.246094 85 18.417969 L 85 66.582031 C 85 76.753906 76.753906 85 66.582031 85 L 18.417969 85 C 8.246094 85 0 76.753906 0 66.582031 L 0 18.417969 C 0 8.246094 8.246094 0 18.417969 0 Z M 18.417969 0 "/>
<path style="fill-rule:nonzero;fill:rgb(100%,100%,100%);fill-opacity:1;stroke-width:0.14809;stroke-linecap:butt;stroke-linejoin:miter;stroke:rgb(100%,25.098039%,0%);stroke-opacity:1;stroke-miterlimit:10;" d="M 81.237132 30 C 75.628676 30 70.384191 31.566176 65.90625 34.284926 C 58.704044 38.498162 50.354779 40.946691 41.431985 41.045956 C 38.294118 41.079044 35.222426 40.825368 32.244485 40.295956 C 31.130515 40.102941 29.994485 39.998162 28.830882 39.998162 C 17.878676 39.998162 9 48.943015 9 59.988971 C 9 71.034926 17.878676 79.979779 28.830882 79.979779 C 29.994485 79.979779 31.130515 79.875 32.244485 79.681985 C 35.222426 79.152574 38.294118 78.898897 41.431985 78.9375 C 50.354779 79.03125 58.704044 81.479779 65.90625 85.693015 C 70.384191 88.411765 75.628676 89.977941 81.237132 89.977941 C 97.670956 89.977941 110.977941 76.555147 110.977941 59.994485 C 110.977941 43.417279 97.670956 30 81.237132 30 Z M 81.237132 30 " transform="matrix(0.708333,0,0,0.708333,0,0)"/>
<path style=" stroke:none;fill-rule:nonzero;fill:rgb(100%,25.098039%,0%);fill-opacity:1;" d="M 18.660156 39.488281 C 17.699219 39.125 17.007812 38.777344 16.601562 38.464844 C 16.21875 38.164062 16.03125 37.835938 16.03125 37.464844 C 16.03125 37.058594 16.222656 36.742188 16.621094 36.492188 C 17.035156 36.234375 17.601562 36.101562 18.316406 36.101562 C 19.480469 36.101562 20.515625 36.328125 21.394531 36.777344 C 21.707031 36.933594 21.933594 36.640625 21.933594 36.441406 L 21.933594 34.300781 C 21.933594 33.96875 21.671875 33.8125 21.582031 33.777344 C 20.5625 33.367188 19.382812 33.164062 18.074219 33.164062 C 16.503906 33.164062 15.21875 33.558594 14.25 34.335938 C 13.269531 35.125 12.769531 36.183594 12.769531 37.484375 C 12.769531 38.683594 13.109375 39.632812 13.773438 40.308594 C 14.421875 40.96875 15.460938 41.527344 16.820312 42.074219 C 17.621094 42.398438 19.25 42.933594 19.507812 43.808594 C 19.742188 44.605469 19.019531 45.316406 17.183594 45.351562 C 15.433594 45.382812 13.492188 44.484375 13.492188 44.484375 C 13.316406 44.40625 12.972656 44.5 12.972656 44.824219 L 12.972656 47.105469 C 12.972656 47.433594 13.222656 47.585938 13.308594 47.621094 C 14.488281 48.101562 15.84375 48.339844 17.34375 48.339844 C 19.042969 48.339844 20.386719 47.960938 21.339844 47.214844 C 22.296875 46.460938 22.785156 45.402344 22.785156 44.058594 C 22.785156 42.898438 22.4375 41.972656 21.753906 41.304688 C 21.085938 40.648438 20.042969 40.039062 18.660156 39.488281 Z M 18.660156 39.488281 "/>
<path style=" stroke:none;fill-rule:nonzero;fill:rgb(100%,25.098039%,0%);fill-opacity:1;" d="M 29.105469 36.929688 C 28.21875 36.929688 26.242188 37.128906 24.476562 38.363281 C 24.4375 38.386719 24.132812 38.601562 24.132812 39.039062 L 24.132812 51.269531 C 24.132812 51.574219 24.378906 51.828125 24.683594 51.828125 L 26.886719 51.828125 C 27.191406 51.828125 27.433594 51.574219 27.433594 51.269531 L 27.433594 48.140625 C 27.996094 48.265625 28.585938 48.339844 29.105469 48.339844 C 32.707031 48.339844 35.023438 46.394531 35.023438 42.636719 C 35.023438 38.867188 32.707031 36.929688 29.105469 36.929688 Z M 29.214844 45.523438 C 28.335938 45.523438 27.433594 45.214844 27.433594 45.214844 L 27.433594 40.058594 C 28.320312 39.746094 29.214844 39.746094 29.214844 39.746094 C 30.667969 39.746094 31.6875 40.722656 31.6875 42.636719 C 31.6875 44.546875 30.667969 45.523438 29.214844 45.523438 Z M 29.214844 45.523438 "/>
<path style=" stroke:none;fill-rule:nonzero;fill:rgb(100%,25.098039%,0%);fill-opacity:1;" d="M 41.921875 36.929688 C 38.511719 36.929688 36.121094 38.863281 36.121094 42.636719 C 36.121094 46.410156 38.511719 48.339844 41.921875 48.339844 C 45.335938 48.339844 47.722656 46.410156 47.722656 42.636719 C 47.722656 38.863281 45.332031 36.929688 41.921875 36.929688 Z M 41.921875 45.523438 C 40.472656 45.523438 39.457031 44.546875 39.457031 42.636719 C 39.457031 40.726562 40.472656 39.746094 41.921875 39.746094 C 43.371094 39.746094 44.390625 40.722656 44.390625 42.636719 C 44.390625 44.546875 43.371094 45.523438 41.921875 45.523438 Z M 41.921875 45.523438 "/>
<path style=" stroke:none;fill-rule:nonzero;fill:rgb(100%,25.098039%,0%);fill-opacity:1;" d="M 54.625 36.929688 C 51.214844 36.929688 48.824219 38.863281 48.824219 42.636719 C 48.824219 46.410156 51.214844 48.339844 54.625 48.339844 C 58.035156 48.339844 60.425781 46.410156 60.425781 42.636719 C 60.425781 38.863281 58.035156 36.929688 54.625 36.929688 Z M 54.625 45.523438 C 53.175781 45.523438 52.160156 44.546875 52.160156 42.636719 C 52.160156 40.726562 53.175781 39.746094 54.625 39.746094 C 56.074219 39.746094 57.089844 40.722656 57.089844 42.636719 C 57.089844 44.546875 56.074219 45.523438 54.625 45.523438 Z M 54.625 45.523438 "/>
<path style=" stroke:none;fill-rule:nonzero;fill:rgb(100%,25.098039%,0%);fill-opacity:1;" d="M 71.894531 39.664062 C 71.6875 39.105469 71.375 38.621094 70.960938 38.214844 C 70.542969 37.808594 70.011719 37.496094 69.359375 37.269531 C 68.707031 37.042969 67.960938 36.929688 67.117188 36.929688 C 66.539062 36.929688 65.898438 36.996094 65.195312 37.132812 C 64.488281 37.269531 63.832031 37.484375 63.21875 37.785156 C 62.785156 37.996094 62.417969 38.210938 62.121094 38.433594 C 62.082031 38.460938 61.78125 38.679688 61.78125 39.105469 L 61.78125 47.398438 C 61.792969 47.695312 62.03125 47.9375 62.328125 47.9375 L 64.535156 47.9375 C 64.839844 47.9375 65.085938 47.6875 65.085938 47.382812 L 65.085938 40.21875 C 65.085938 40.21875 66.5625 39.40625 67.980469 40.003906 C 68.953125 40.40625 68.902344 41.835938 68.902344 41.835938 L 68.902344 47.382812 C 68.902344 47.6875 69.148438 47.9375 69.453125 47.9375 L 71.652344 47.9375 C 71.957031 47.9375 72.203125 47.6875 72.203125 47.382812 L 72.203125 41.5 C 72.203125 40.839844 72.101562 40.226562 71.894531 39.664062 Z M 71.894531 39.664062 "/>
</g>
</svg>
