<?xml version="1.0" encoding="UTF-8"?>
<svg xmlns="http://www.w3.org/2000/svg" xmlns:xlink="http://www.w3.org/1999/xlink" width="85px" height="85px" viewBox="0 0 85 85" version="1.1">
<g id="surface1">
<path style=" stroke:none;fill-rule:nonzero;fill:rgb(100%,100%,100%);fill-opacity:1;" d="M 18.417969 0 L 66.582031 0 C 76.753906 0 85 8.246094 85 18.417969 L 85 66.582031 C 85 76.753906 76.753906 85 66.582031 85 L 18.417969 85 C 8.246094 85 0 76.753906 0 66.582031 L 0 18.417969 C 0 8.246094 8.246094 0 18.417969 0 Z M 18.417969 0 "/>
<path style=" stroke:none;fill-rule:nonzero;fill:rgb(92.941176%,13.333333%,14.117647%);fill-opacity:1;" d="M 70.339844 29.347656 C 69.679688 27 67.738281 25.144531 65.269531 24.519531 C 60.792969 23.375 42.855469 23.375 42.855469 23.375 C 42.855469 23.375 24.910156 23.375 20.4375 24.519531 C 17.96875 25.144531 16.027344 26.996094 15.363281 29.347656 C 14.167969 33.609375 14.167969 42.5 14.167969 42.5 C 14.167969 42.5 14.167969 51.390625 15.363281 55.65625 C 16.027344 58.007812 17.96875 59.859375 20.4375 60.484375 C 24.914062 61.625 42.855469 61.625 42.855469 61.625 C 42.855469 61.625 60.792969 61.625 65.269531 60.484375 C 67.738281 59.855469 69.683594 58.003906 70.339844 55.65625 C 71.539062 51.390625 71.539062 42.5 71.539062 42.5 C 71.539062 42.5 71.542969 33.609375 70.339844 29.347656 Z M 70.339844 29.347656 "/>
<path style=" stroke:none;fill-rule:nonzero;fill:rgb(100%,100%,100%);fill-opacity:1;" d="M 37.117188 50.695312 L 52.023438 42.5 L 37.117188 34.304688 Z M 37.117188 50.695312 "/>
</g>
</svg>
