<?xml version="1.0" encoding="UTF-8"?>
<svg xmlns="http://www.w3.org/2000/svg" xmlns:xlink="http://www.w3.org/1999/xlink" width="85px" height="85px" viewBox="0 0 85 85" version="1.1">
<g id="surface1">
<path style=" stroke:none;fill-rule:nonzero;fill:rgb(100%,89.803922%,0%);fill-opacity:1;" d="M 18.417969 0 L 66.582031 0 C 76.753906 0 85 8.246094 85 18.417969 L 85 66.582031 C 85 76.753906 76.753906 85 66.582031 85 L 18.417969 85 C 8.246094 85 0 76.753906 0 66.582031 L 0 18.417969 C 0 8.246094 8.246094 0 18.417969 0 Z M 18.417969 0 "/>
<path style=" stroke:none;fill-rule:nonzero;fill:rgb(100%,100%,100%);fill-opacity:1;" d="M 42.855469 67.292969 C 56.351562 67.292969 67.292969 56.351562 67.292969 42.855469 C 67.292969 29.359375 56.351562 18.417969 42.855469 18.417969 C 29.359375 18.417969 18.417969 29.359375 18.417969 42.855469 C 18.417969 56.351562 29.359375 67.292969 42.855469 67.292969 Z M 42.855469 67.292969 "/>
<path style=" stroke:none;fill-rule:nonzero;fill:rgb(100%,100%,100%);fill-opacity:1;" d="M 33.078125 47.742188 C 33.078125 47.742188 36.746094 52.628906 42.855469 52.628906 C 48.964844 52.628906 52.628906 47.742188 52.628906 47.742188 "/>
<path style=" stroke:none;fill-rule:nonzero;fill:rgb(100%,100%,100%);fill-opacity:1;" d="M 51.40625 35.523438 C 51.40625 36.199219 50.859375 36.746094 50.183594 36.746094 C 49.511719 36.746094 48.964844 36.199219 48.964844 35.523438 C 48.964844 34.847656 49.511719 34.300781 50.183594 34.300781 C 50.859375 34.300781 51.40625 34.847656 51.40625 35.523438 Z M 51.40625 35.523438 "/>
<path style=" stroke:none;fill-rule:nonzero;fill:rgb(100%,100%,100%);fill-opacity:1;" d="M 36.746094 35.523438 C 36.746094 36.199219 36.199219 36.746094 35.523438 36.746094 C 34.847656 36.746094 34.300781 36.199219 34.300781 35.523438 C 34.300781 34.847656 34.847656 34.300781 35.523438 34.300781 C 36.199219 34.300781 36.746094 34.847656 36.746094 35.523438 Z M 36.746094 35.523438 "/>
<path style="fill:none;stroke-width:8.83089;stroke-linecap:round;stroke-linejoin:round;stroke:rgb(11.764706%,11.764706%,11.764706%);stroke-opacity:1;stroke-miterlimit:4;" d="M 46.698529 67.400735 C 46.698529 67.400735 51.876838 74.299632 60.501838 74.299632 C 69.126838 74.299632 74.299632 67.400735 74.299632 67.400735 M 70.847426 50.150735 L 70.886029 50.150735 M 50.150735 50.150735 L 50.183824 50.150735 M 95.001838 60.501838 C 95.001838 79.555147 79.555147 95.001838 60.501838 95.001838 C 41.448529 95.001838 26.001838 79.555147 26.001838 60.501838 C 26.001838 41.448529 41.448529 26.001838 60.501838 26.001838 C 79.555147 26.001838 95.001838 41.448529 95.001838 60.501838 Z M 72.573529 50.150735 C 72.573529 51.104779 71.801471 51.876838 70.847426 51.876838 C 69.898897 51.876838 69.126838 51.104779 69.126838 50.150735 C 69.126838 49.196691 69.898897 48.424632 70.847426 48.424632 C 71.801471 48.424632 72.573529 49.196691 72.573529 50.150735 Z M 51.876838 50.150735 C 51.876838 51.104779 51.104779 51.876838 50.150735 51.876838 C 49.196691 51.876838 48.424632 51.104779 48.424632 50.150735 C 48.424632 49.196691 49.196691 48.424632 50.150735 48.424632 C 51.104779 48.424632 51.876838 49.196691 51.876838 50.150735 Z M 51.876838 50.150735 " transform="matrix(0.708333,0,0,0.708333,0,0)"/>
</g>
</svg>
