<?xml version="1.0" encoding="UTF-8"?>
<svg xmlns="http://www.w3.org/2000/svg" xmlns:xlink="http://www.w3.org/1999/xlink" width="85px" height="85px" viewBox="0 0 85 85" version="1.1">
<g id="surface1">
<path style=" stroke:none;fill-rule:nonzero;fill:rgb(0%,0%,0%);fill-opacity:1;" d="M 18.417969 0 L 66.582031 0 C 76.753906 0 85 8.246094 85 18.417969 L 85 66.582031 C 85 76.753906 76.753906 85 66.582031 85 L 18.417969 85 C 8.246094 85 0 76.753906 0 66.582031 L 0 18.417969 C 0 8.246094 8.246094 0 18.417969 0 Z M 18.417969 0 "/>
<path style=" stroke:none;fill-rule:nonzero;fill:rgb(41.568627%,76.862745%,79.607843%);fill-opacity:1;" d="M 37.292969 36.566406 L 37.292969 34.363281 C 36.5625 34.253906 35.820312 34.195312 35.070312 34.195312 C 26.261719 34.195312 19.125 41.710938 19.125 50.984375 C 19.125 56.726562 21.863281 61.792969 26.042969 64.820312 C 23.371094 61.816406 21.726562 57.78125 21.726562 53.34375 C 21.726562 44.203125 28.660156 36.777344 37.292969 36.566406 Z M 37.292969 36.566406 "/>
<path style=" stroke:none;fill-rule:nonzero;fill:rgb(41.568627%,76.862745%,79.607843%);fill-opacity:1;" d="M 63.273438 29.441406 L 63.273438 27.179688 C 63.273438 27.179688 60.242188 27.71875 57.011719 25.601562 C 59.140625 28.160156 61.515625 29.113281 63.273438 29.441406 Z M 63.273438 29.441406 "/>
<path style=" stroke:none;fill-rule:nonzero;fill:rgb(41.568627%,76.862745%,79.607843%);fill-opacity:1;" d="M 37.71875 60.949219 C 41.730469 60.949219 44.984375 57.519531 44.984375 53.296875 C 44.984375 53.199219 44.972656 53.105469 44.972656 53.007812 L 44.984375 53.007812 L 44.984375 17.234375 L 51.234375 17.234375 C 51.160156 17.015625 51.082031 16.792969 51.011719 16.5625 L 51.011719 14.875 L 42.382812 14.875 L 42.382812 50.644531 L 42.363281 50.644531 C 42.371094 50.738281 42.382812 50.835938 42.382812 50.929688 C 42.382812 55.15625 39.125 58.582031 35.113281 58.582031 C 33.925781 58.582031 32.804688 58.273438 31.816406 57.742188 C 33.132812 59.679688 35.285156 60.949219 37.71875 60.949219 Z M 37.71875 60.949219 "/>
<path style=" stroke:none;fill-rule:nonzero;fill:rgb(90.196078%,12.156863%,30.588235%);fill-opacity:1;" d="M 57.011719 25.601562 C 55.722656 24.046875 54.523438 21.894531 53.609375 18.921875 L 53.609375 17.234375 L 51.226562 17.234375 C 52.734375 21.722656 54.917969 24.226562 57.011719 25.601562 Z M 57.011719 25.601562 "/>
<path style=" stroke:none;fill-rule:nonzero;fill:rgb(90.196078%,12.156863%,30.588235%);fill-opacity:1;" d="M 35.113281 43.285156 C 31.101562 43.285156 27.847656 46.710938 27.847656 50.9375 C 27.847656 53.910156 29.460938 56.484375 31.816406 57.746094 C 30.960938 56.488281 30.449219 54.957031 30.449219 53.296875 C 30.449219 49.070312 33.703125 45.644531 37.71875 45.644531 C 38.476562 45.644531 39.207031 45.769531 39.898438 45.996094 L 39.898438 36.722656 C 39.167969 36.613281 38.425781 36.554688 37.671875 36.554688 C 37.546875 36.554688 37.421875 36.5625 37.292969 36.566406 L 37.292969 43.636719 C 36.601562 43.410156 35.871094 43.285156 35.113281 43.285156 Z M 35.113281 43.285156 "/>
<path style=" stroke:none;fill-rule:nonzero;fill:rgb(90.196078%,12.156863%,30.588235%);fill-opacity:1;" d="M 63.273438 29.441406 L 63.273438 36.621094 C 56.496094 36.621094 51.851562 33.097656 51.007812 32.414062 L 51.007812 50.648438 L 50.996094 50.648438 C 50.996094 50.761719 51.007812 50.871094 51.007812 50.984375 C 51.007812 60.257812 43.871094 67.769531 35.0625 67.769531 C 31.710938 67.769531 28.605469 66.679688 26.042969 64.820312 C 28.949219 68.085938 33.082031 70.132812 37.667969 70.132812 C 46.472656 70.132812 53.609375 62.617188 53.609375 53.34375 C 53.609375 53.230469 53.597656 53.117188 53.597656 53.007812 L 53.609375 53.007812 L 53.609375 34.773438 C 54.453125 35.464844 59.09375 38.980469 65.875 38.980469 L 65.875 29.542969 C 65.875 29.542969 64.8125 29.726562 63.273438 29.441406 Z M 63.273438 29.441406 "/>
<path style=" stroke:none;fill-rule:nonzero;fill:rgb(100%,100%,100%);fill-opacity:1;" d="M 51.007812 50.984375 C 51.007812 50.871094 50.996094 50.761719 50.996094 50.648438 L 51.007812 50.648438 L 51.007812 32.414062 C 51.851562 33.105469 56.492188 36.621094 63.273438 36.621094 L 63.273438 29.441406 C 61.511719 29.113281 59.140625 28.160156 57.011719 25.601562 C 54.914062 24.226562 52.734375 21.722656 51.226562 17.234375 L 44.984375 17.234375 L 44.984375 53.007812 L 44.972656 53.007812 C 44.980469 53.105469 44.984375 53.199219 44.984375 53.296875 C 44.984375 57.519531 41.730469 60.949219 37.71875 60.949219 C 35.285156 60.949219 33.132812 59.683594 31.8125 57.746094 C 29.460938 56.484375 27.847656 53.910156 27.847656 50.9375 C 27.847656 46.710938 31.101562 43.285156 35.113281 43.285156 C 35.871094 43.285156 36.609375 43.410156 37.292969 43.636719 L 37.292969 36.566406 C 28.660156 36.777344 21.730469 44.203125 21.730469 53.34375 C 21.730469 57.78125 23.371094 61.816406 26.042969 64.820312 C 28.605469 66.679688 31.710938 67.769531 35.0625 67.769531 C 43.871094 67.769531 51.007812 60.25 51.007812 50.984375 Z M 51.007812 50.984375 "/>
</g>
</svg>
