<svg width="120" height="120" viewBox="0 0 120 120" fill="none" xmlns="http://www.w3.org/2000/svg">
<rect width="120" height="120" rx="26" fill="white"/>
<path d="M99.3048 41.4332C98.3713 38.1161 95.6282 35.4993 92.1453 34.6145C85.8268 33 60.5 33 60.5 33C60.5 33 35.1688 33 28.8547 34.6145C25.3674 35.4993 22.6243 38.1119 21.6908 41.4332C20 47.4467 20 60.0021 20 60.0021C20 60.0021 20 72.5533 21.6908 78.571C22.6243 81.8923 25.3674 84.5049 28.8547 85.3897C35.1732 87 60.5 87 60.5 87C60.5 87 85.8268 87 92.1453 85.3897C95.6282 84.5007 98.3757 81.8881 99.3048 78.571C100.996 72.5533 100.996 60.0021 100.996 60.0021C100.996 60.0021 101 47.4467 99.3048 41.4332Z" fill="#ED2224"/>
<path d="M52.3984 71.572L73.4454 60.0021L52.3984 48.428V71.572Z" fill="white"/>
</svg>
