<?xml version="1.0" encoding="UTF-8"?>
<svg xmlns="http://www.w3.org/2000/svg" xmlns:xlink="http://www.w3.org/1999/xlink" width="85px" height="85px" viewBox="0 0 85 85" version="1.1">
<g id="surface1">
<path style=" stroke:none;fill-rule:nonzero;fill:rgb(100%,100%,100%);fill-opacity:1;" d="M 18.417969 0 L 66.582031 0 C 76.753906 0 85 8.246094 85 18.417969 L 85 66.582031 C 85 76.753906 76.753906 85 66.582031 85 L 18.417969 85 C 8.246094 85 0 76.753906 0 66.582031 L 0 18.417969 C 0 8.246094 8.246094 0 18.417969 0 Z M 18.417969 0 "/>
<path style=" stroke:none;fill-rule:nonzero;fill:rgb(50.588235%,100%,42.352941%);fill-opacity:1;" d="M 14.875 29.382812 C 14.875 26.289062 14.875 24.742188 15.476562 23.558594 C 16.007812 22.519531 16.851562 21.671875 17.890625 21.144531 C 19.074219 20.542969 20.621094 20.542969 23.714844 20.542969 L 24.820312 20.542969 C 31.007812 20.542969 34.101562 20.542969 36.464844 21.746094 C 38.546875 22.804688 40.234375 24.496094 41.296875 26.574219 C 42.5 28.9375 42.5 32.03125 42.5 38.222656 L 42.5 64.742188 L 23.714844 64.742188 C 20.621094 64.742188 19.074219 64.742188 17.890625 64.140625 C 16.851562 63.609375 16.007812 62.765625 15.476562 61.726562 C 14.875 60.542969 14.875 58.996094 14.875 55.902344 Z M 14.875 29.382812 "/>
<path style=" stroke:none;fill-rule:nonzero;fill:rgb(50.588235%,100%,42.352941%);fill-opacity:1;" d="M 70.125 29.382812 C 70.125 26.289062 70.125 24.742188 69.523438 23.558594 C 68.992188 22.519531 68.148438 21.671875 67.109375 21.144531 C 65.925781 20.542969 64.378906 20.542969 61.285156 20.542969 L 60.179688 20.542969 C 53.992188 20.542969 50.898438 20.542969 48.535156 21.746094 C 46.453125 22.804688 44.765625 24.496094 43.703125 26.574219 C 42.5 28.9375 42.5 32.03125 42.5 38.222656 L 42.5 64.742188 L 61.285156 64.742188 C 64.378906 64.742188 65.925781 64.742188 67.109375 64.140625 C 68.148438 63.609375 68.992188 62.765625 69.523438 61.726562 C 70.125 60.542969 70.125 58.996094 70.125 55.902344 Z M 70.125 29.382812 "/>
<path style="fill:none;stroke-width:8.71127;stroke-linecap:round;stroke-linejoin:round;stroke:rgb(12.156863%,84.705882%,0%);stroke-opacity:1;stroke-miterlimit:4;" d="M 60 91.400735 L 33.479779 91.400735 C 29.112132 91.400735 26.928309 91.400735 25.257353 90.551471 C 23.790441 89.801471 22.599265 88.610294 21.849265 87.143382 C 21 85.472426 21 83.288603 21 78.920956 L 21 41.481618 C 21 37.113971 21 34.930147 21.849265 33.259191 C 22.599265 31.792279 23.790441 30.595588 25.257353 29.851103 C 26.928309 29.001838 29.112132 29.001838 33.479779 29.001838 L 35.040441 29.001838 C 43.775735 29.001838 48.143382 29.001838 51.479779 30.700368 C 54.419118 32.194853 56.801471 34.582721 58.301471 37.516544 C 60 40.852941 60 45.220588 60 53.961397 M 60 91.400735 L 60 53.961397 M 60 91.400735 L 86.520221 91.400735 C 90.887868 91.400735 93.071691 91.400735 94.742647 90.551471 C 96.209559 89.801471 97.400735 88.610294 98.150735 87.143382 C 99 85.472426 99 83.288603 99 78.920956 L 99 41.481618 C 99 37.113971 99 34.930147 98.150735 33.259191 C 97.400735 31.792279 96.209559 30.595588 94.742647 29.851103 C 93.071691 29.001838 90.887868 29.001838 86.520221 29.001838 L 84.959559 29.001838 C 76.224265 29.001838 71.856618 29.001838 68.520221 30.700368 C 65.580882 32.194853 63.198529 34.582721 61.698529 37.516544 C 60 40.852941 60 45.220588 60 53.961397 " transform="matrix(0.708333,0,0,0.708333,0,0)"/>
<path style="fill:none;stroke-width:8.71127;stroke-linecap:butt;stroke-linejoin:miter;stroke:rgb(12.156863%,84.705882%,0%);stroke-opacity:1;stroke-miterlimit:4;" d="M 22.560662 50.840074 L 49.417279 50.840074 C 51.860294 50.840074 57.397059 51.777574 60 55.522059 " transform="matrix(0.708333,0,0,0.708333,0,0)"/>
<path style="fill:none;stroke-width:8.71127;stroke-linecap:butt;stroke-linejoin:miter;stroke:rgb(12.156863%,84.705882%,0%);stroke-opacity:1;stroke-miterlimit:4;" d="M 97.439338 69.5625 L 70.582721 69.5625 C 68.139706 69.5625 62.602941 70.494485 60 74.238971 " transform="matrix(0.708333,0,0,0.708333,0,0)"/>
<path style="fill:none;stroke-width:8.71127;stroke-linecap:butt;stroke-linejoin:miter;stroke:rgb(12.156863%,84.705882%,0%);stroke-opacity:1;stroke-miterlimit:4;" d="M 75.601103 29.779412 L 75.601103 68.779412 " transform="matrix(0.708333,0,0,0.708333,0,0)"/>
<path style="fill:none;stroke-width:8.71127;stroke-linecap:butt;stroke-linejoin:miter;stroke:rgb(12.156863%,84.705882%,0%);stroke-opacity:1;stroke-miterlimit:4;" d="M 35.818015 51.617647 L 35.818015 90.617647 " transform="matrix(0.708333,0,0,0.708333,0,0)"/>
</g>
</svg>
