<?xml version="1.0" encoding="UTF-8"?>
<svg xmlns="http://www.w3.org/2000/svg" xmlns:xlink="http://www.w3.org/1999/xlink" width="85px" height="85px" viewBox="0 0 85 85" version="1.1">
<defs>
<clipPath id="clip1">
  <path d="M 18.417969 17.707031 L 66.242188 17.707031 L 66.242188 67.707031 L 18.417969 67.707031 Z M 18.417969 17.707031 "/>
</clipPath>
</defs>
<g id="surface1">
<path style=" stroke:none;fill-rule:nonzero;fill:rgb(39.607843%,27.45098%,61.176471%);fill-opacity:1;" d="M 18.417969 0 L 66.582031 0 C 76.753906 0 85 8.246094 85 18.417969 L 85 66.582031 C 85 76.753906 76.753906 85 66.582031 85 L 18.417969 85 C 8.246094 85 0 76.753906 0 66.582031 L 0 18.417969 C 0 8.246094 8.246094 0 18.417969 0 Z M 18.417969 0 "/>
<g clip-path="url(#clip1)" clip-rule="nonzero">
<path style=" stroke:none;fill-rule:nonzero;fill:rgb(100%,100%,100%);fill-opacity:1;" d="M 30.394531 67.664062 C 30.394531 65.695312 30.394531 63.714844 30.394531 61.6875 C 26.398438 61.6875 22.453125 61.6875 18.445312 61.6875 C 18.4375 61.4375 18.417969 61.246094 18.417969 61.050781 C 18.417969 49.804688 18.417969 38.554688 18.421875 27.308594 C 18.421875 26.976562 18.480469 26.644531 18.578125 26.335938 C 19.460938 23.621094 20.359375 20.914062 21.234375 18.195312 C 21.355469 17.828125 21.503906 17.707031 21.882812 17.707031 C 36.503906 17.722656 51.121094 17.714844 65.742188 17.714844 C 65.882812 17.714844 66.03125 17.714844 66.234375 17.714844 C 66.234375 17.949219 66.234375 18.144531 66.234375 18.34375 C 66.234375 28.035156 66.234375 37.734375 66.242188 47.425781 C 66.242188 47.832031 66.121094 48.109375 65.839844 48.390625 C 61.601562 52.675781 57.363281 56.96875 53.136719 61.265625 C 52.855469 61.550781 52.582031 61.671875 52.1875 61.667969 C 49.613281 61.644531 47.035156 61.667969 44.464844 61.644531 C 43.972656 61.636719 43.617188 61.773438 43.265625 62.136719 C 41.570312 63.894531 39.851562 65.628906 38.117188 67.359375 C 37.953125 67.523438 37.695312 67.6875 37.476562 67.6875 C 35.179688 67.707031 32.875 67.699219 30.578125 67.699219 C 30.535156 67.707031 30.484375 67.6875 30.394531 67.664062 Z M 25.84375 22.214844 C 25.84375 32.855469 25.84375 43.460938 25.84375 54.140625 C 29.34375 54.140625 32.816406 54.140625 36.339844 54.140625 C 36.339844 56.175781 36.339844 58.136719 36.339844 60.1875 C 36.503906 60.03125 36.59375 59.945312 36.679688 59.859375 C 38.449219 58.066406 40.222656 56.28125 41.984375 54.480469 C 42.238281 54.222656 42.484375 54.117188 42.84375 54.125 C 46.515625 54.140625 50.179688 54.140625 53.847656 54.117188 C 54.117188 54.117188 54.457031 53.972656 54.644531 53.78125 C 56.933594 51.496094 59.195312 49.183594 61.472656 46.890625 C 61.726562 46.632812 61.816406 46.375 61.816406 46.019531 C 61.8125 38.277344 61.816406 30.519531 61.816406 22.773438 C 61.816406 22.59375 61.816406 22.414062 61.816406 22.214844 C 49.792969 22.214844 37.835938 22.214844 25.84375 22.214844 Z M 25.84375 22.214844 "/>
</g>
<path style=" stroke:none;fill-rule:nonzero;fill:rgb(100%,100%,100%);fill-opacity:1;" d="M 42.308594 31.414062 C 42.308594 35.925781 42.308594 40.398438 42.308594 44.90625 C 40.835938 44.90625 39.371094 44.90625 37.871094 44.90625 C 37.871094 40.417969 37.871094 35.933594 37.871094 31.414062 C 39.328125 31.414062 40.792969 31.414062 42.308594 31.414062 Z M 42.308594 31.414062 "/>
<path style=" stroke:none;fill-rule:nonzero;fill:rgb(100%,100%,100%);fill-opacity:1;" d="M 54.242188 44.925781 C 52.777344 44.925781 51.347656 44.925781 49.890625 44.925781 C 49.890625 40.417969 49.890625 35.933594 49.890625 31.414062 C 51.328125 31.414062 52.769531 31.414062 54.242188 31.414062 C 54.242188 35.898438 54.242188 40.382812 54.242188 44.925781 Z M 54.242188 44.925781 "/>
</g>
</svg>
