<?xml version="1.0" encoding="UTF-8"?>
<svg xmlns="http://www.w3.org/2000/svg" xmlns:xlink="http://www.w3.org/1999/xlink" width="85px" height="85px" viewBox="0 0 85 85" version="1.1">
<g id="surface1">
<path style=" stroke:none;fill-rule:nonzero;fill:rgb(100%,100%,100%);fill-opacity:1;" d="M 18.417969 0 L 66.582031 0 C 76.753906 0 85 8.246094 85 18.417969 L 85 66.582031 C 85 76.753906 76.753906 85 66.582031 85 L 18.417969 85 C 8.246094 85 0 76.753906 0 66.582031 L 0 18.417969 C 0 8.246094 8.246094 0 18.417969 0 Z M 18.417969 0 "/>
<path style=" stroke:none;fill-rule:nonzero;fill:rgb(1.176471%,81.176471%,36.470588%);fill-opacity:1;" d="M 24.109375 35.875 C 23.398438 35.875 22.789062 36.125 22.285156 36.628906 C 21.78125 37.128906 21.527344 37.738281 21.527344 38.449219 C 21.527344 39.160156 21.78125 39.765625 22.285156 40.269531 C 22.792969 40.769531 23.398438 41.023438 24.109375 41.023438 C 24.832031 41.023438 25.449219 40.769531 25.964844 40.269531 C 26.480469 39.765625 26.734375 39.160156 26.734375 38.449219 C 26.734375 37.738281 26.480469 37.128906 25.964844 36.628906 C 25.449219 36.125 24.832031 35.875 24.109375 35.875 Z M 24.109375 35.875 "/>
<path style=" stroke:none;fill-rule:nonzero;fill:rgb(1.176471%,81.176471%,36.470588%);fill-opacity:1;" d="M 46.171875 35.855469 C 45.460938 35.855469 44.851562 36.101562 44.347656 36.605469 C 43.839844 37.105469 43.589844 37.714844 43.589844 38.425781 C 43.589844 39.140625 43.84375 39.746094 44.347656 40.246094 C 44.851562 40.746094 45.460938 40.996094 46.171875 40.996094 C 46.894531 40.996094 47.511719 40.742188 48.027344 40.246094 C 48.542969 39.746094 48.796875 39.136719 48.796875 38.425781 C 48.796875 37.714844 48.542969 37.105469 48.027344 36.605469 C 47.511719 36.101562 46.894531 35.855469 46.171875 35.855469 Z M 46.171875 35.855469 "/>
<path style=" stroke:none;fill-rule:nonzero;fill:rgb(1.176471%,81.176471%,36.470588%);fill-opacity:1;" d="M 60.882812 35.875 C 60.171875 35.875 59.5625 36.125 59.054688 36.628906 C 58.550781 37.128906 58.296875 37.738281 58.296875 38.449219 C 58.296875 39.160156 58.550781 39.765625 59.054688 40.269531 C 59.5625 40.769531 60.171875 41.023438 60.882812 41.023438 C 61.601562 41.023438 62.222656 40.769531 62.738281 40.269531 C 63.253906 39.765625 63.507812 39.160156 63.507812 38.449219 C 63.507812 37.738281 63.25 37.128906 62.738281 36.628906 C 62.222656 36.125 61.605469 35.875 60.882812 35.875 Z M 60.882812 35.875 "/>
<path style=" stroke:none;fill-rule:nonzero;fill:rgb(1.176471%,81.176471%,36.470588%);fill-opacity:1;" d="M 67.421875 17 L 17.574219 17 C 13.753906 17 10.625 20.042969 10.625 23.761719 L 10.625 51.195312 C 10.625 54.914062 13.753906 57.957031 17.574219 57.957031 L 37.148438 57.957031 C 37.148438 57.957031 40.929688 67.996094 42.304688 67.996094 C 43.683594 67.996094 47.769531 57.957031 47.769531 57.957031 L 67.421875 57.957031 C 71.246094 57.957031 74.371094 54.914062 74.371094 51.195312 L 74.371094 23.761719 C 74.375 20.042969 71.246094 17 67.421875 17 Z M 29.152344 42.324219 C 28.167969 43.410156 26.652344 43.863281 25.003906 43.863281 C 23.511719 43.863281 22.425781 43.425781 21.617188 42.832031 L 21.570312 42.832031 L 21.570312 43.601562 L 17.828125 43.601562 L 17.828125 27.71875 L 21.570312 27.71875 L 21.570312 33.789062 L 21.617188 33.789062 C 22.632812 32.949219 23.976562 32.660156 25.558594 32.613281 C 26.917969 32.566406 28.328125 33.390625 29.171875 34.34375 C 30.011719 35.292969 30.628906 36.78125 30.628906 38.425781 C 30.628906 40.21875 30.144531 41.242188 29.152344 42.324219 Z M 37.1875 43.722656 L 33.371094 43.722656 C 33.371094 43.722656 33.371094 35.375 33.371094 33.894531 C 33.371094 31.625 31.527344 31.328125 31.527344 31.328125 L 31.527344 27.390625 C 31.527344 27.390625 36.875 27.707031 37.1875 34.015625 C 37.1875 35.835938 37.1875 43.722656 37.1875 43.722656 Z M 52.164062 40.707031 C 51.84375 41.417969 51.378906 42.054688 50.761719 42.613281 C 50.15625 43.164062 49.460938 43.589844 48.671875 43.882812 C 47.882812 44.175781 47.050781 44.328125 46.175781 44.328125 C 45.3125 44.328125 44.496094 44.175781 43.71875 43.882812 C 42.9375 43.589844 42.242188 43.164062 41.628906 42.613281 C 40.996094 42.03125 40.519531 41.394531 40.191406 40.683594 C 39.871094 39.984375 39.710938 39.234375 39.710938 38.449219 C 39.710938 37.660156 39.871094 36.910156 40.195312 36.207031 C 40.523438 35.503906 41 34.859375 41.632812 34.277344 C 42.25 33.726562 42.945312 33.304688 43.722656 33.007812 C 44.5 32.714844 45.316406 32.570312 46.179688 32.570312 C 47.054688 32.570312 47.882812 32.714844 48.675781 33.007812 C 49.460938 33.304688 50.15625 33.726562 50.765625 34.277344 C 51.382812 34.835938 51.847656 35.472656 52.167969 36.183594 C 52.488281 36.894531 52.648438 37.648438 52.648438 38.449219 C 52.640625 39.242188 52.484375 39.996094 52.164062 40.707031 Z M 67.171875 42.289062 C 67.171875 45.074219 66.628906 46.777344 65.347656 47.960938 C 63.824219 49.363281 61.660156 49.460938 59.835938 49.210938 L 59.835938 46.328125 C 61.359375 46.476562 63.453125 45.5 63.449219 43.582031 L 63.449219 42.84375 L 63.402344 42.84375 C 62.546875 43.988281 61.300781 44.40625 59.644531 44.40625 C 58.105469 44.40625 56.773438 43.855469 55.875 42.828125 C 54.972656 41.796875 54.523438 40.421875 54.523438 38.691406 C 54.523438 36.757812 55.027344 35.214844 56.03125 34.082031 C 57.035156 32.941406 58.46875 32.410156 60.109375 32.410156 C 61.578125 32.410156 62.5 32.753906 63.40625 33.554688 L 63.453125 33.554688 L 63.453125 32.679688 L 67.171875 32.679688 Z M 67.171875 42.289062 "/>
</g>
</svg>
