<svg width="90" height="25" viewBox="0 0 90 25" fill="none" xmlns="http://www.w3.org/2000/svg">
<circle cx="39.5746" cy="4.46763" r="1.91489" fill="#F23555"/>
<circle cx="31.9149" cy="4.46763" r="1.91489" fill="#F23555"/>
<path d="M12.6977 10.0162H17.3568C16.9705 5.71927 13.8202 3.28112 9.46295 3.28112C4.76768 3.28112 1.07424 6.44348 1.06217 12.2613C1.07424 18.0549 4.67112 21.2414 9.46295 21.2414C14.4962 21.2414 17.1033 17.7652 17.3568 14.7718L12.6977 14.7236C12.4443 16.2806 11.3338 17.2221 9.55951 17.2341C7.19377 17.2221 5.79364 15.5443 5.79364 12.2613C5.79364 9.13511 7.15756 7.28838 9.58365 7.28838C11.4424 7.28838 12.5408 8.37469 12.6977 10.0162ZM19.626 21H24.1885V14.0959C24.1764 12.5751 25.2265 11.5612 26.6507 11.5612C27.1456 11.5612 27.9181 11.6457 28.3647 11.8026V7.86775C28.0026 7.78326 27.5801 7.71084 27.1818 7.72291C25.7696 7.71084 24.6592 8.54367 24.1885 10.3542H24.0436V7.89189H19.626V21ZM35.7757 21.2414C40.0003 21.2414 42.5229 18.5136 42.5108 14.4822C42.5229 10.4507 40.0003 7.72291 35.7757 7.72291C31.5512 7.72291 29.0286 10.4507 29.0165 14.4822C29.0286 18.5136 31.5512 21.2414 35.7757 21.2414ZM33.6755 14.458C33.6876 12.3578 34.4601 11.0422 35.7999 11.0543C37.0793 11.0422 37.8639 12.3578 37.8518 14.458C37.8639 16.5341 37.0793 17.8497 35.7999 17.8618C34.4601 17.8497 33.6876 16.5341 33.6755 14.458ZM52.9635 15.2788C52.9756 16.6427 52.1669 17.4514 50.984 17.4514C49.765 17.4514 49.0528 16.6427 49.0528 15.3029V7.89189H44.4903V16.2444C44.4903 19.1412 46.3008 21.169 49.0287 21.169C50.9961 21.169 52.4807 20.1792 53.0601 18.5136H53.2049V21H57.526V7.89189H52.9635V15.2788ZM64.5508 13.589C64.5508 12.2492 65.3233 11.4284 66.5303 11.4405C67.7615 11.4284 68.4857 12.2371 68.4615 13.589V21H73.024V12.6475C73.0482 9.76275 71.2376 7.72291 68.4615 7.72291C66.5303 7.72291 65.0215 8.72472 64.4543 10.3542H64.3094V7.89189H59.9883V21H64.5508V13.589ZM80.1695 21.169C82.0404 21.1811 83.2836 20.1551 83.8147 18.8515H83.9354V21H88.4496V3.52252H83.8871V10.1611H83.8147C83.3198 8.86956 82.1128 7.72291 80.1212 7.72291C77.502 7.72291 74.9794 9.73861 74.9794 14.458C74.9794 18.9722 77.333 21.1811 80.1695 21.169ZM79.6867 14.4339C79.6746 12.4544 80.4592 11.2353 81.811 11.2474C83.187 11.2353 83.9957 12.4423 84.0078 14.4339C83.9957 16.4134 83.175 17.6566 81.811 17.6687C80.4592 17.6566 79.6746 16.4375 79.6867 14.4339Z" fill="#F23555"/>
</svg>
