<svg width="32" height="32" viewBox="0 0 32 32" fill="none" xmlns="http://www.w3.org/2000/svg">
<path d="M31.75 15.9998C31.75 24.6982 24.6985 31.7497 16 31.7497C7.30151 31.7497 0.25 24.6982 0.25 15.9998C0.25 7.30145 7.30151 0.25 16 0.25C24.6985 0.25 31.75 7.30145 31.75 15.9998Z" stroke="#BDBDBD" stroke-width="0.5"/>
<path d="M17.0561 22.9999V16.158H19.3515L19.6956 13.4915H17.0561V11.7899C17.0561 11.0177 17.2703 10.4909 18.3766 10.4909L19.7884 10.4895V8.10563C19.5443 8.0728 18.7049 8 17.7299 8C15.6943 8 14.3011 9.2419 14.3011 11.5244V13.49H12V16.1566H14.3025V22.9984H17.0561V22.9999Z" fill="white"/>
</svg>
