<svg width="34" height="34" viewBox="0 0 34 34" fill="none" xmlns="http://www.w3.org/2000/svg">
<g clip-path="url(#clip0_48_10016)">
<path fill-rule="evenodd" clip-rule="evenodd" d="M33.7163 17.3852C33.7163 16.181 33.6083 15.0218 33.4111 13.9077H17.552V20.4835H26.6143C26.2246 22.6074 25.0366 24.409 23.2547 25.6132V29.8777H28.6968C31.878 26.9217 33.7163 22.5624 33.7163 17.3852Z" fill="#4377BC"/>
<path fill-rule="evenodd" clip-rule="evenodd" d="M17.552 34C22.0972 34 25.91 32.4781 28.6944 29.8825L23.2547 25.6156C21.7474 26.6349 19.8175 27.2394 17.5543 27.2394C13.1687 27.2394 9.45691 24.2502 8.13278 20.2298H2.50757V24.6342C5.27792 30.1906 10.9712 34 17.552 34Z" fill="#36A053"/>
<path fill-rule="evenodd" clip-rule="evenodd" d="M8.13286 20.2298C7.79713 19.2105 7.60461 18.1201 7.60461 17.0012C7.60461 15.88 7.79713 14.7919 8.13286 13.7702V9.36584H2.50764C1.36664 11.6605 0.716309 14.2562 0.716309 16.9988C0.716309 19.7415 1.36664 22.3372 2.50764 24.6342L8.13286 20.2298Z" fill="#EFB61A"/>
<path fill-rule="evenodd" clip-rule="evenodd" d="M17.552 6.76065C20.0241 6.76065 22.2428 7.61877 23.9872 9.30182L28.8165 4.42571C25.9029 1.68542 22.0902 0 17.552 0C10.9712 0 5.27792 3.80938 2.50757 9.36582L8.13278 13.7702C9.45457 9.75221 13.1664 6.76065 17.552 6.76065Z" fill="#DA4334"/>
</g>
<defs>
<clipPath id="clip0_48_10016">
<rect width="33" height="34" fill="white" transform="translate(0.716309)"/>
</clipPath>
</defs>
</svg>
