<svg width="24" height="24" viewBox="0 0 24 24" fill="none" xmlns="http://www.w3.org/2000/svg">
<path fill-rule="evenodd" clip-rule="evenodd" d="M23.2944 12.2721C23.2944 11.4221 23.2181 10.6038 23.0789 9.81738H11.8843V14.4591H18.2812C18.0061 15.9584 17.1675 17.2301 15.9097 18.0801V21.0903H19.7512C21.9967 19.0037 23.2944 15.9266 23.2944 12.2721Z" fill="#4377BC"/>
<path fill-rule="evenodd" clip-rule="evenodd" d="M11.8842 24.0004C15.0926 24.0004 17.784 22.9262 19.7495 21.0939L15.9096 18.082C14.8457 18.8015 13.4835 19.2282 11.8859 19.2282C8.79016 19.2282 6.17007 17.1182 5.23539 14.2803H1.26465V17.3892C3.22019 21.3114 7.23899 24.0004 11.8842 24.0004Z" fill="#36A053"/>
<path fill-rule="evenodd" clip-rule="evenodd" d="M5.23521 14.28C4.99823 13.5605 4.86233 12.7908 4.86233 12.001C4.86233 11.2095 4.99823 10.4415 5.23521 9.7203V6.61133H1.26447C0.459055 8.23107 0 10.0633 0 11.9993C0 13.9353 0.459055 15.7676 1.26447 17.389L5.23521 14.28Z" fill="#EFB61A"/>
<path fill-rule="evenodd" clip-rule="evenodd" d="M11.8842 4.77222C13.6293 4.77222 15.1954 5.37796 16.4267 6.56599L19.8356 3.12403C17.779 1.18971 15.0877 0 11.8842 0C7.23899 0 3.22019 2.68898 1.26465 6.61117L5.23539 9.72014C6.16841 6.88392 8.7885 4.77222 11.8842 4.77222Z" fill="#DA4334"/>
</svg>
