<svg viewBox="0 0 10 10" fill="current" xmlns="http://www.w3.org/2000/svg">
<path d="M4.64133 0.726292C4.75657 0.492822 4.81419 0.376088 4.89241 0.338791C4.96047 0.306341 5.03954 0.306341 5.1076 0.338791C5.18583 0.376088 5.24345 0.492822 5.35869 0.726292L6.45203 2.94128C6.48605 3.0102 6.50306 3.04466 6.52792 3.07142C6.54994 3.09511 6.57633 3.11431 6.60566 3.12794C6.63878 3.14335 6.6768 3.1489 6.75286 3.16002L9.1985 3.51749C9.45603 3.55513 9.5848 3.57395 9.64439 3.63685C9.69624 3.69158 9.72062 3.76678 9.71075 3.84152C9.69941 3.92742 9.60618 4.01822 9.41974 4.19982L7.65072 5.92284C7.59558 5.97655 7.56801 6.00341 7.55021 6.03536C7.53446 6.06366 7.52435 6.09474 7.52046 6.12689C7.51605 6.16319 7.52256 6.20113 7.53557 6.277L7.95298 8.71069C7.997 8.96738 8.01902 9.09572 7.97765 9.17188C7.94166 9.23815 7.87768 9.28463 7.80353 9.29837C7.71831 9.31417 7.60306 9.25356 7.37256 9.13234L5.18619 7.98255C5.11807 7.94673 5.08401 7.92881 5.04812 7.92178C5.01635 7.91554 4.98367 7.91554 4.9519 7.92178C4.91601 7.92881 4.88195 7.94673 4.81383 7.98255L2.62746 9.13234C2.39696 9.25356 2.28171 9.31417 2.19649 9.29837C2.12234 9.28463 2.05836 9.23815 2.02237 9.17188C1.981 9.09572 2.00301 8.96738 2.04704 8.71069L2.46444 6.277C2.47746 6.20113 2.48396 6.16319 2.47956 6.12689C2.47566 6.09474 2.46556 6.06366 2.4498 6.03536C2.43201 6.00341 2.40444 5.97655 2.34929 5.92284L0.58028 4.19982C0.393831 4.01822 0.300607 3.92742 0.289263 3.84152C0.279393 3.76678 0.303777 3.69158 0.355625 3.63685C0.415218 3.57395 0.543986 3.55513 0.801522 3.51749L3.24716 3.16002C3.32321 3.1489 3.36124 3.14335 3.39436 3.12794C3.42368 3.11431 3.45008 3.09511 3.47209 3.07142C3.49695 3.04466 3.51396 3.0102 3.54799 2.94128L4.64133 0.726292Z" fill="current"/>
</svg>
