<svg viewBox="0 0 32 32" fill="none" xmlns="http://www.w3.org/2000/svg">
<g clip-path="url(#clip0_739_4343)">
<path d="M12.661 24.0008C19.455 24.0008 23.1688 18.2297 23.1688 13.2265C23.1688 13.0631 23.1663 12.8997 23.1576 12.7376C23.8801 12.2035 24.5058 11.5346 24.9994 10.7768C24.3377 11.0775 23.6252 11.281 22.8792 11.3732C23.6413 10.9039 24.2255 10.162 24.5033 9.27819C23.7902 9.71117 22.9989 10.0278 22.1574 10.1982C21.4827 9.46066 20.5259 9.00098 19.463 9.00098C17.4235 9.00098 15.7709 10.6973 15.7709 12.7865C15.7709 13.0841 15.8031 13.3715 15.8651 13.6512C12.7962 13.491 10.0733 11.9848 8.25263 9.69464C7.93637 10.2535 7.75282 10.9033 7.75282 11.597C7.75282 12.9105 8.40393 14.0696 9.39673 14.7493C8.79088 14.7296 8.22038 14.5592 7.72305 14.275C7.72243 14.2921 7.72243 14.3074 7.72243 14.3233C7.72243 16.1582 8.99614 17.6892 10.6841 18.0351C10.3759 18.1209 10.0485 18.1686 9.71237 18.1686C9.47425 18.1686 9.24295 18.1432 9.01785 18.0987C9.48913 19.6043 10.8521 20.6991 12.4675 20.7296C11.2037 21.7456 9.61129 22.3503 7.88056 22.3503C7.58353 22.3503 7.29021 22.3325 7 22.2975C8.634 23.3739 10.5749 24.0008 12.661 24.0008Z" fill="white"/>
</g>
<path d="M31.75 15.9998C31.75 24.6982 24.6985 31.7497 16 31.7497C7.30151 31.7497 0.25 24.6982 0.25 15.9998C0.25 7.30145 7.30151 0.25 16 0.25C24.6985 0.25 31.75 7.30145 31.75 15.9998Z" stroke="#BDBDBD" stroke-width="0.5"/>
<defs>
<clipPath id="clip0_739_4343">
<rect width="18" height="14.9999" fill="white" transform="translate(7 9)"/>
</clipPath>
</defs>
</svg>
