<svg width="32" height="32" viewBox="0 0 32 32" fill="none" xmlns="http://www.w3.org/2000/svg">
<path d="M31.75 15.9998C31.75 24.6982 24.6985 31.7497 16 31.7497C7.30151 31.7497 0.25 24.6982 0.25 15.9998C0.25 7.30145 7.30151 0.25 16 0.25C24.6985 0.25 31.75 7.30145 31.75 15.9998Z" stroke="#BDBDBD" stroke-width="0.5"/>
<path d="M19.1727 8.50098H12.8306C10.4388 8.50098 8.5 10.4381 8.5 12.8299V19.1719C8.5 21.5653 10.4372 23.5008 12.8306 23.5008H19.1727C21.5645 23.5008 23.5033 21.5637 23.5033 19.1719V12.8299C23.5033 10.4381 21.5645 8.50098 19.1727 8.50098ZM22.1215 19.2843C22.1215 20.8711 20.8339 22.1587 19.2471 22.1587H12.7562C11.1711 22.1587 9.88182 20.8694 9.88182 19.2843V12.7935C9.88182 11.2051 11.1711 9.91914 12.7562 9.91914H19.2471C20.8339 9.91914 22.1215 11.2051 22.1215 12.7935V19.2843Z" fill="white"/>
<path d="M16.0013 12.1475C13.8525 12.1475 12.1104 13.8896 12.1104 16.04C12.1104 18.1887 13.8525 19.9309 16.0013 19.9309C18.1517 19.9309 19.8955 18.1871 19.8955 16.04C19.8955 13.8896 18.1517 12.1475 16.0013 12.1475ZM16.0013 18.5623C14.6079 18.5623 13.479 17.4334 13.479 16.04C13.479 14.6466 14.6079 13.516 16.0013 13.516C17.3963 13.516 18.5252 14.6466 18.5252 16.04C18.5252 17.4334 17.3963 18.5623 16.0013 18.5623Z" fill="white"/>
<path d="M20.0236 11.0908C19.5228 11.0908 19.1162 11.4958 19.1162 11.9982C19.1162 12.5007 19.5228 12.9057 20.0236 12.9057C20.5261 12.9057 20.9311 12.5007 20.9311 11.9982C20.9311 11.4958 20.5261 11.0908 20.0236 11.0908Z" fill="white"/>
</svg>
