<svg width="36" height="33" viewBox="0 0 36 33" fill="none" xmlns="http://www.w3.org/2000/svg">
<path d="M17.8822 0C8.00581 0 0 6.32766 0 14.1376C0 19.2193 3.39006 23.673 8.4819 26.1649C8.1071 27.5594 7.1279 31.223 6.93206 32.0063C6.68895 32.9788 7.2866 32.9653 7.68166 32.7053C7.98892 32.4993 12.581 29.376 14.5631 28.0288C15.6402 28.1875 16.7477 28.2719 17.8822 28.2719C27.7586 28.2719 35.7645 21.9442 35.7645 14.1376C35.7611 6.32766 27.7553 0 17.8822 0Z" fill="#371D1E"/>
<mask id="mask0_203_21692" style="mask-type:luminance" maskUnits="userSpaceOnUse" x="4" y="9" width="8" height="10">
<path d="M5.40588 11.531H7.2461C7.2461 11.531 7.25961 16.5857 7.2461 17.7641C7.24948 18.6251 9.16061 18.6352 9.15723 17.7776L9.16399 11.5985C9.16399 11.5985 9.78189 11.6019 10.9941 11.6019C12.1387 11.6019 12.1387 9.80216 10.9941 9.80216C9.70423 9.80216 5.39575 9.76501 5.39575 9.76501C4.32538 9.76839 4.32538 11.531 5.40588 11.531Z" fill="white"/>
</mask>
<g mask="url(#mask0_203_21692)">
<path d="M12.1489 9.76837H4.32544V18.6386H12.1489V9.76837Z" fill="#FAE100"/>
</g>
<mask id="mask1_203_21692" style="mask-type:luminance" maskUnits="userSpaceOnUse" x="10" y="9" width="8" height="10">
<path d="M14.2154 11.8584L15.2385 15.0662H13.1046L14.2154 11.8584ZM13.0674 10.3559C12.615 11.352 10.9773 16.0623 10.4371 17.3116C10.0454 18.2165 11.7371 18.9526 12.1287 18.0477L12.4968 16.7612H15.8632C15.8632 16.7612 15.7484 16.8118 16.1941 17.9936C16.5554 18.9492 18.3045 18.2874 17.9432 17.3318C17.4265 15.9677 15.637 11.0514 15.3128 10.3559C15.1643 10.0351 14.624 9.80212 14.1006 9.80212C13.6684 9.80212 13.2464 9.96082 13.0674 10.3559Z" fill="white"/>
</mask>
<g mask="url(#mask1_203_21692)">
<path d="M18.3078 9.80212H10.042V18.9526H18.3078V9.80212Z" fill="#FAE100"/>
</g>
<mask id="mask2_203_21692" style="mask-type:luminance" maskUnits="userSpaceOnUse" x="18" y="9" width="6" height="10">
<path d="M18.5913 10.6496C18.5947 12.2501 18.6015 17.4095 18.6015 17.4095C18.6015 17.4095 18.4529 18.436 19.3342 18.436C20.2121 18.436 22.1637 18.4258 23.0281 18.4258C23.8925 18.4258 23.8891 16.5856 23.0247 16.5856C22.1603 16.5856 20.5801 16.5755 20.5801 16.5755C20.5801 16.5755 20.5869 11.8044 20.5835 10.6429C20.5835 10.0824 20.0838 9.80212 19.5874 9.80212C19.0877 9.8055 18.5879 10.0891 18.5913 10.6496Z" fill="white"/>
</mask>
<g mask="url(#mask2_203_21692)">
<path d="M23.8925 9.80548H18.4529V18.436H23.8925V9.80548Z" fill="#FAE100"/>
</g>
<mask id="mask3_203_21692" style="mask-type:luminance" maskUnits="userSpaceOnUse" x="24" y="9" width="7" height="10">
<path d="M24.1223 10.3964C24.1425 11.0988 24.0986 17.4467 24.0986 17.916C24.0986 18.6589 25.9895 18.6555 25.9895 17.9126C25.9895 17.0516 25.9895 15.414 25.9895 15.414L26.5433 14.9683L28.9676 18.2773C29.4572 18.9256 31.0003 17.7539 30.5107 17.109L27.9344 13.7156C27.9344 13.7156 29.6835 11.8247 30.3723 11.1393C30.7741 10.7408 29.5281 9.48477 29.1263 9.88658C28.738 10.2715 25.9963 13.0166 25.9963 13.0166C25.9963 13.0166 26.0199 11.2946 25.9963 10.3424C25.9861 9.98112 25.5438 9.80554 25.0913 9.80554C24.6085 9.80892 24.1121 10.0081 24.1223 10.3964Z" fill="white"/>
</mask>
<g mask="url(#mask3_203_21692)">
<path d="M31.0037 9.49152H24.0986V18.9324H31.0037V9.49152Z" fill="#FAE100"/>
</g>
</svg>
