<svg viewBox="0 0 16 16" fill="none" xmlns="http://www.w3.org/2000/svg">
<path d="M1.3335 5.58449C1.3335 5.35094 1.3335 5.23417 1.34324 5.13582C1.43723 4.18719 2.18767 3.43674 3.1363 3.34275C3.23466 3.33301 3.35773 3.33301 3.60389 3.33301C3.69873 3.33301 3.74616 3.33301 3.78642 3.33057C4.30057 3.29943 4.7508 2.97493 4.94293 2.49701C4.95797 2.45958 4.97204 2.41739 5.00016 2.33301C5.02829 2.24863 5.04235 2.20644 5.0574 2.16901C5.24953 1.69109 5.69976 1.36658 6.21391 1.33545C6.25417 1.33301 6.29864 1.33301 6.38759 1.33301H9.61274C9.70168 1.33301 9.74616 1.33301 9.78642 1.33545C10.3006 1.36658 10.7508 1.69109 10.9429 2.16901C10.958 2.20644 10.972 2.24863 11.0002 2.33301C11.0283 2.41739 11.0424 2.45958 11.0574 2.49701C11.2495 2.97493 11.6998 3.29943 12.2139 3.33057C12.2542 3.33301 12.3016 3.33301 12.3964 3.33301C12.6426 3.33301 12.7657 3.33301 12.864 3.34275C13.8127 3.43674 14.5631 4.18719 14.6571 5.13582C14.6668 5.23417 14.6668 5.35094 14.6668 5.58449V10.7997C14.6668 11.9198 14.6668 12.4798 14.4488 12.9077C14.2571 13.284 13.9511 13.5899 13.5748 13.7817C13.147 13.9997 12.5869 13.9997 11.4668 13.9997H4.5335C3.41339 13.9997 2.85334 13.9997 2.42552 13.7817C2.04919 13.5899 1.74323 13.284 1.55148 12.9077C1.3335 12.4798 1.3335 11.9198 1.3335 10.7997V5.58449Z" stroke="current" stroke-width="1.5" stroke-linecap="round" stroke-linejoin="round"/>
<path d="M8.00016 10.9997C9.47292 10.9997 10.6668 9.80577 10.6668 8.33301C10.6668 6.86025 9.47292 5.66634 8.00016 5.66634C6.5274 5.66634 5.3335 6.86025 5.3335 8.33301C5.3335 9.80577 6.5274 10.9997 8.00016 10.9997Z" stroke="current" stroke-width="1.5" stroke-linecap="round" stroke-linejoin="round"/>
</svg>
